<?xml version="1.0" standalone="no"?>
<!DOCTYPE svg PUBLIC "-//W3C//DTD SVG 20010904//EN"
 "http://www.w3.org/TR/2001/REC-SVG-20010904/DTD/svg10.dtd">
<svg version="1.0" xmlns="http://www.w3.org/2000/svg"
 width="541.000000pt" height="541.000000pt" viewBox="0 0 541.000000 541.000000"
 preserveAspectRatio="xMidYMid meet">
<metadata>
Created by potrace 1.11, written by Peter Selinger 2001-2013
</metadata>
<g transform="translate(0.000000,541.000000) scale(0.100000,-0.100000)"
fill="#000000" stroke="none">
<path d="M2497 3663 c-11 -11 -8 -183 3 -183 6 0 10 38 10 95 0 95 -1 101 -13
88z"/>
<path d="M2581 3577 c-1 -63 3 -96 9 -92 12 7 12 142 0 170 -6 13 -9 -14 -9
-78z"/>
<path d="M2677 3663 c-4 -3 -7 -46 -7 -95 0 -72 3 -88 15 -88 12 0 15 17 15
95 0 87 -5 107 -23 88z"/>
<path d="M2767 3663 c-4 -3 -7 -46 -7 -95 0 -72 3 -88 15 -88 12 0 15 17 15
95 0 87 -5 107 -23 88z"/>
<path d="M2890 3575 c0 -78 3 -95 15 -95 12 0 15 17 15 95 0 78 -3 95 -15 95
-12 0 -15 -17 -15 -95z"/>
<path d="M2990 3575 c0 -57 4 -95 10 -95 6 0 10 38 10 95 0 57 -4 95 -10 95
-6 0 -10 -38 -10 -95z"/>
<path d="M2460 2956 c0 -266 3 -498 6 -515 l7 -31 281 2 281 3 3 513 2 512
-290 0 -290 0 0 -484z"/>
<path d="M4873 3078 l-43 -9 0 -75 0 -75 -43 6 c-65 10 -121 -9 -172 -59 -48
-48 -60 -84 -59 -176 1 -76 19 -124 59 -159 38 -33 102 -48 162 -36 21 4 66 7
101 6 l62 -2 -2 292 c-2 185 -7 293 -13 295 -5 1 -29 -3 -52 -8z m-59 -264
c13 -5 16 -24 16 -105 0 -99 0 -100 -27 -110 -19 -7 -38 -6 -67 3 -35 11 -43
19 -54 53 -27 83 13 165 82 165 19 0 41 -3 50 -6z"/>
<path d="M600 3067 l-45 -12 -3 -282 -2 -283 55 0 55 0 0 144 c0 142 0 144 25
160 37 25 80 20 104 -10 19 -24 21 -40 21 -160 l0 -134 55 0 55 0 0 164 c0
153 -1 165 -22 192 -28 37 -33 40 -91 59 -42 14 -53 14 -97 1 l-50 -15 0 95
c0 51 -3 94 -7 93 -5 0 -28 -6 -53 -12z"/>
<path d="M3190 2785 l0 -286 58 3 57 3 3 118 3 117 94 0 94 0 3 -117 3 -118
58 -3 57 -3 -2 283 -3 283 -49 3 c-32 2 -52 -1 -57 -10 -5 -7 -9 -57 -9 -110
l0 -98 -95 0 -95 0 0 94 c0 52 -3 101 -6 110 -5 12 -20 16 -60 16 l-54 0 0
-285z"/>
<path d="M105 3038 c-3 -13 -4 -140 -3 -283 l3 -260 58 -3 57 -3 0 96 0 95 35
0 c71 0 133 21 175 58 34 31 42 46 49 90 10 67 -3 139 -31 169 -34 36 -140 63
-246 63 -87 0 -92 -1 -97 -22z m223 -108 c27 -17 32 -25 32 -59 0 -22 -7 -46
-15 -54 -15 -16 -99 -32 -115 -22 -11 7 -14 138 -3 148 13 14 69 6 101 -13z"/>
<path d="M3773 2920 c-41 -13 -46 -22 -38 -69 l6 -38 72 5 c63 4 74 2 90 -16
17 -19 17 -19 -38 -21 -61 -1 -116 -24 -154 -65 -20 -21 -24 -36 -24 -83 0
-64 12 -95 47 -118 35 -23 114 -29 162 -13 35 12 44 13 60 1 26 -19 68 -16 95
6 22 18 23 20 8 38 -12 13 -18 49 -22 140 -7 142 -21 181 -75 214 -42 25 -138
34 -189 19z m147 -264 c0 -27 -7 -39 -29 -55 -52 -37 -96 -20 -89 36 4 32 37
53 86 53 30 0 32 -2 32 -34z"/>
<path d="M4255 2915 c-23 -13 -34 -14 -50 -5 -12 6 -37 10 -56 8 l-34 -3 0
-205 0 -205 58 -3 57 -3 0 147 c0 165 3 173 71 174 63 0 72 -20 77 -180 l5
-140 53 0 54 0 0 151 c0 170 -8 200 -66 244 -44 34 -125 44 -169 20z"/>
<path d="M5100 2923 c-83 -28 -110 -57 -110 -120 0 -54 33 -93 109 -131 66
-33 83 -55 59 -78 -16 -16 -20 -16 -72 3 l-55 21 -21 -35 c-28 -48 -25 -59 20
-77 71 -28 182 -15 227 26 27 25 38 87 23 132 -12 37 -34 55 -115 97 -86 44
-60 80 41 55 29 -6 33 -4 48 28 9 18 16 38 16 43 0 23 -129 50 -170 36z"/>
<path d="M1082 2906 c-29 -8 -55 -16 -58 -19 -3 -3 0 -23 5 -45 l11 -40 63 5
c61 5 107 -6 107 -27 0 -4 -29 -11 -64 -15 -35 -4 -78 -16 -95 -26 -66 -40
-90 -127 -53 -199 14 -29 27 -38 72 -53 47 -15 61 -16 95 -6 22 7 45 17 52 22
8 6 23 2 42 -12 51 -36 120 -4 91 42 -9 14 -15 64 -18 142 -6 168 -26 204
-124 231 -62 16 -57 16 -126 0z m138 -256 c0 -55 -66 -98 -108 -71 -8 5 -12
22 -10 42 3 38 33 59 86 59 29 0 32 -3 32 -30z"/>
<path d="M1586 2909 c-10 -6 -54 -11 -97 -10 l-79 1 0 -205 0 -205 60 0 60 0
0 134 c0 121 2 136 22 161 19 24 26 27 65 22 40 -4 44 -2 63 28 29 47 25 60
-19 73 -46 14 -51 14 -75 1z"/>
<path d="M1895 2906 c-16 -6 -35 -14 -42 -19 -6 -4 -14 -3 -18 3 -3 5 -26 10
-51 10 l-44 0 0 -205 0 -205 55 0 55 0 0 144 c0 138 1 146 22 160 27 19 69 21
86 4 8 -8 12 -58 12 -160 l0 -148 60 0 60 0 0 141 c0 77 5 149 10 160 13 22
71 27 88 6 7 -8 13 -72 14 -158 l3 -144 58 -3 57 -3 0 138 c0 76 -3 155 -7
176 -8 50 -48 89 -105 104 -40 11 -52 10 -99 -8 -38 -14 -60 -17 -74 -10 -30
14 -87 31 -99 30 -6 -1 -24 -6 -41 -13z"/>
<path d="M2100 2398 c-25 -13 -82 -48 -125 -79 -71 -49 -256 -159 -270 -159
-2 0 -33 -13 -67 -28 -94 -43 -162 -70 -268 -105 -75 -26 -96 -36 -98 -53 -4
-30 56 -112 124 -167 59 -48 193 -120 249 -133 17 -4 35 -10 40 -14 6 -4 24
-11 40 -14 25 -6 39 0 76 29 60 46 127 80 224 113 l80 27 305 0 c200 -1 333
-5 385 -14 79 -12 82 -12 135 13 30 15 64 32 75 39 11 7 43 25 70 42 28 16 52
32 55 35 3 3 21 13 40 23 19 9 76 39 125 67 93 52 186 98 290 144 144 65 162
76 176 114 14 36 -13 90 -55 107 -69 29 -135 20 -371 -49 -49 -15 -116 -33
-149 -41 -89 -23 -90 -24 -87 -90 2 -48 -2 -63 -24 -95 -15 -21 -41 -44 -58
-50 -18 -7 -41 -16 -53 -22 -42 -20 -510 13 -488 35 4 4 120 7 257 7 l249 0
33 33 c44 44 52 78 30 127 -28 62 -81 78 -315 95 -107 8 -211 19 -230 24 -230
64 -331 74 -400 39z"/>
</g>
</svg>
